<svg width="23" height="23" viewBox="0 0 23 23" fill="none" xmlns="http://www.w3.org/2000/svg">
<path d="M2.92104 0H6.8081C8.42963 0 9.72915 1.32252 9.72915 2.94519V6.8656C9.72915 8.49863 8.42963 9.80965 6.8081 9.80965H2.92104C1.31102 9.80965 0 8.49863 0 6.8656V2.94519C0 1.32252 1.31102 0 2.92104 0Z" fill="white"/>
<path d="M2.92104 13.1903H6.8081C8.42963 13.1903 9.72915 14.5025 9.72915 16.1355V20.056C9.72915 21.6775 8.42963 23 6.8081 23H2.92104C1.31102 23 0 21.6775 0 20.056V16.1355C0 14.5025 1.31102 13.1903 2.92104 13.1903Z" fill="white"/>
<path d="M20.0794 0H16.1924C14.5708 0 13.2713 1.32252 13.2713 2.94519V6.8656C13.2713 8.49863 14.5708 9.80965 16.1924 9.80965H20.0794C21.6894 9.80965 23.0005 8.49863 23.0005 6.8656V2.94519C23.0005 1.32252 21.6894 0 20.0794 0Z" fill="white"/>
<path d="M16.1924 13.1903H20.0794C21.6894 13.1903 23.0005 14.5025 23.0005 16.1355V20.056C23.0005 21.6775 21.6894 23 20.0794 23H16.1924C14.5708 23 13.2713 21.6775 13.2713 20.056V16.1355C13.2713 14.5025 14.5708 13.1903 16.1924 13.1903Z" fill="white"/>
</svg>
