<svg width="20" height="20" viewBox="0 0 20 20" fill="none" xmlns="http://www.w3.org/2000/svg">
<path fill-rule="evenodd" clip-rule="evenodd" d="M12.9004 4.57565C13.1892 4.57961 13.4787 4.58358 13.7693 4.58655C16.8908 4.58655 19.1667 6.81199 19.1667 9.88521V13.8327C19.1667 16.9059 16.8908 19.1314 13.7693 19.1314C12.5188 19.1578 11.2684 19.1667 10.009 19.1667C8.74963 19.1667 7.48123 19.1578 6.23082 19.1314C3.1093 19.1314 0.833374 16.9059 0.833374 13.8327V9.88521C0.833374 6.81199 3.1093 4.58655 6.23982 4.58655C7.41826 4.56889 8.62369 4.55123 9.84711 4.55123V4.4011C9.84711 3.79176 9.33435 3.29722 8.72264 3.29722H7.83207C6.81555 3.29722 5.98794 2.48476 5.98794 1.49567C5.98794 1.1336 6.29379 0.833344 6.66262 0.833344C7.04044 0.833344 7.3373 1.1336 7.3373 1.49567C7.3373 1.76061 7.56219 1.97255 7.83207 1.97255H8.72264C10.081 1.98138 11.1875 3.06761 11.1965 4.39227V4.56006C11.7636 4.56006 12.3307 4.56784 12.9004 4.57565ZM8.94754 12.5169H8.00299V13.453C8.00299 13.815 7.69713 14.1153 7.3283 14.1153C6.95048 14.1153 6.65362 13.815 6.65362 13.453V12.5169H5.70007C5.33125 12.5169 5.02539 12.2254 5.02539 11.8545C5.02539 11.4925 5.33125 11.1922 5.70007 11.1922H6.65362V10.2649C6.65362 9.90287 6.95048 9.60261 7.3283 9.60261C7.69713 9.60261 8.00299 9.90287 8.00299 10.2649V11.1922H8.94754C9.31636 11.1922 9.62222 11.4925 9.62222 11.8545C9.62222 12.2254 9.31636 12.5169 8.94754 12.5169ZM12.7707 11.0244H12.8607C13.2295 11.0244 13.5354 10.733 13.5354 10.3621C13.5354 10 13.2295 9.69975 12.8607 9.69975H12.7707C12.3929 9.69975 12.096 10 12.096 10.3621C12.096 10.733 12.3929 11.0244 12.7707 11.0244ZM14.309 14.0623H14.399C14.7678 14.0623 15.0736 13.7709 15.0736 13.4C15.0736 13.0379 14.7678 12.7376 14.399 12.7376H14.309C13.9303 12.7376 13.6343 13.0379 13.6343 13.4C13.6343 13.7709 13.9303 14.0623 14.309 14.0623Z" fill="#5AA6FF"/>
</svg>
