<svg width="26" height="26" viewBox="0 0 26 26" fill="none" xmlns="http://www.w3.org/2000/svg">
<path fill-rule="evenodd" clip-rule="evenodd" d="M16.3437 16.4895C16.26 16.5962 16.2111 16.7131 16.1134 16.9469C16.0556 17.0852 16.0003 17.2245 15.9477 17.3648C14.0335 17.9896 11.9665 17.9895 10.0523 17.3646C9.99963 17.2245 9.9444 17.0852 9.88659 16.9469L9.88659 16.9469C9.78886 16.7131 9.73999 16.5962 9.65627 16.4895C9.57255 16.3828 9.42978 16.2775 9.14426 16.0668C7.54033 14.8831 6.5 12.9797 6.5 10.8333C6.5 7.24349 9.41015 4.33334 13 4.33334C16.5899 4.33334 19.5 7.24349 19.5 10.8333C19.5 12.9797 18.4597 14.8831 16.8557 16.0668C16.5702 16.2775 16.4275 16.3828 16.3437 16.4895ZM10.6562 19.5922C10.7499 20.137 10.8069 20.6889 10.826 21.2443C10.835 21.5031 10.9796 21.7398 11.2111 21.8556C12.3373 22.4186 13.6627 22.4186 14.7889 21.8556C15.0204 21.7398 15.165 21.5031 15.174 21.2443C15.1931 20.6889 15.2501 20.137 15.3438 19.5922C13.7983 19.9137 12.2017 19.9137 10.6562 19.5922Z" fill="#FFE55A"/>
</svg>
