<svg width="23" height="23" viewBox="0 0 23 23" fill="none" xmlns="http://www.w3.org/2000/svg">
<path fill-rule="evenodd" clip-rule="evenodd" d="M0 11.5067C0 5.15919 5.16168 0 11.5 0C17.8383 0 23 5.15919 23 11.5067C23 17.8408 17.8383 23 11.5 23C5.16168 23 0 17.8408 0 11.5067ZM15.7181 12.6705C15.8402 12.5485 15.9956 12.3599 16.0289 12.3155C16.2066 12.0825 16.2954 11.794 16.2954 11.5067C16.2954 11.1838 16.1955 10.8842 16.0068 10.6401C15.9913 10.6247 15.961 10.5917 15.9216 10.5488C15.8477 10.4684 15.7417 10.353 15.6404 10.2518C14.7302 9.27544 12.3547 7.67776 11.1115 7.18958C10.9228 7.11302 10.4455 6.94549 10.1901 6.93439C9.94594 6.93439 9.71283 6.98987 9.49082 7.10082C9.21331 7.25615 8.99131 7.50024 8.8692 7.78871C8.7915 7.98842 8.66939 8.58755 8.66939 8.59865C8.54729 9.25325 8.48069 10.3184 8.48069 11.4945C8.48069 12.6162 8.54729 13.6358 8.64719 14.3015C8.64994 14.3042 8.65949 14.3518 8.67432 14.4258C8.71942 14.6507 8.81337 15.1191 8.9136 15.3111C9.15781 15.7771 9.63513 16.0656 10.1457 16.0656H10.1901C10.5232 16.0545 11.2225 15.766 11.2225 15.7549C12.3991 15.2668 14.7191 13.7467 15.6515 12.7371L15.7181 12.6705Z" fill="white"/>
</svg>
